<?xml version="1.0" standalone="no"?>
<!DOCTYPE svg PUBLIC "-//W3C//DTD SVG 20010904//EN"
 "http://www.w3.org/TR/2001/REC-SVG-20010904/DTD/svg10.dtd">
<svg version="1.0" xmlns="http://www.w3.org/2000/svg"
 width="430.000000pt" height="194.000000pt" viewBox="0 0 430.000000 194.000000"
 preserveAspectRatio="xMidYMid meet">
<metadata>
Created by potrace 1.15, written by Peter Selinger 2001-2017
</metadata>
<g transform="translate(0.000000,194.000000) scale(0.100000,-0.100000)"
fill="#000000" stroke="none">
<path d="M2040 1879 c-554 -67 -1067 -305 -1470 -681 -44 -41 -80 -80 -80 -87
0 -31 35 -19 117 42 398 294 828 475 1308 548 189 29 527 36 709 15 488 -57
904 -231 1410 -590 74 -53 142 -96 151 -96 31 0 28 31 -6 67 -64 66 -254 225
-359 300 -344 245 -691 392 -1091 463 -100 18 -171 23 -369 25 -135 2 -279 -1
-320 -6z"/>
<path d="M2170 1570 c-466 -47 -859 -201 -1231 -482 -63 -47 -180 -144 -260
-215 -592 -521 -605 -534 -630 -628 -16 -56 4 -111 51 -143 31 -21 43 -23 105
-19 39 4 131 24 205 46 281 82 545 98 780 49 288 -61 514 -82 795 -75 237 6
356 22 565 73 372 92 731 260 1166 545 106 70 191 119 205 119 13 0 42 -12 62
-26 21 -14 41 -24 44 -21 15 16 -225 254 -382 379 -244 194 -571 331 -915 383
-125 19 -440 27 -560 15z m665 -190 c314 -63 723 -248 909 -412 l40 -34 -65
-46 c-168 -121 -400 -253 -619 -353 -155 -71 -426 -181 -479 -195 -20 -4 -88
-22 -152 -39 -371 -96 -763 -90 -1284 21 -166 35 -211 41 -350 45 -211 5 -225
7 -225 39 0 47 30 96 107 176 96 99 280 262 390 346 187 142 442 288 588 336
223 73 428 120 593 136 154 15 424 5 547 -20z"/>
</g>
</svg>
